<svg width="15" height="13" viewBox="0 0 15 13" fill="none" xmlns="http://www.w3.org/2000/svg">
<path d="M11.1033 12.6395C10.9148 12.6395 10.7081 12.5748 10.4845 12.4458L5.42062 8.53335C5.3639 8.48969 5.32922 8.42151 5.32546 8.34793C5.32218 8.27435 5.35031 8.20323 5.40281 8.15368L11.4009 2.5053C11.497 2.41455 11.6452 2.4224 11.7319 2.52344C11.8186 2.624 11.8106 2.77901 11.7145 2.86976L5.93015 8.31752L10.7367 12.0337C10.8637 12.1049 11.0784 12.1951 11.2312 12.121C11.3869 12.0465 11.4637 11.8086 11.5012 11.6222L13.552 1.50904C13.6317 1.17499 13.5933 0.906186 13.4512 0.782574C13.343 0.688393 13.1817 0.681526 13.0073 0.763934L0.952965 5.62896C0.583121 5.78445 0.466871 5.94436 0.468746 5.99734C0.470153 6.03217 0.54984 6.12831 0.787496 6.20434L3.77578 7.18048L7.05656 5.01433C7.16625 4.94271 7.31062 4.97656 7.37953 5.09085C7.44843 5.20514 7.41609 5.35671 7.3064 5.42882L3.93421 7.65531C3.87609 7.69357 3.80437 7.70338 3.73922 7.68229L0.649215 6.67279C0.100778 6.49718 0.00702771 6.18717 0.000465213 6.01794C-0.00890979 5.78592 0.119059 5.4504 0.781871 5.17277L12.8264 0.312651C13.1531 0.156664 13.5037 0.19002 13.7517 0.406341C14.0391 0.656999 14.1328 1.09945 14.0091 1.6199L11.9602 11.7237C11.8739 12.1544 11.6948 12.4384 11.4272 12.5669C11.3264 12.6155 11.2186 12.6395 11.1033 12.6395Z" fill="#FAFBFF"/>
<path d="M11.1033 12.6395C10.9148 12.6395 10.7081 12.5748 10.4845 12.4458L7.33453 10.0133C7.23046 9.93282 7.20796 9.77879 7.28531 9.67039C7.36218 9.56149 7.50937 9.53794 7.61296 9.61888L10.7367 12.0337C10.8637 12.1049 11.0784 12.1951 11.2312 12.121C11.3869 12.0465 11.4637 11.8086 11.5012 11.6222L13.552 1.50904C13.6317 1.17499 13.5933 0.906186 13.4512 0.782574C13.343 0.688393 13.1817 0.681526 13.0073 0.763934L0.952965 5.62896C0.583121 5.78445 0.466871 5.94436 0.468746 5.99734C0.470153 6.03217 0.54984 6.12831 0.787496 6.20434L3.87843 7.21384C3.9525 7.23788 4.01015 7.29919 4.03312 7.37669L5.09578 11.0365C5.12437 11.1184 5.1464 11.1998 5.16562 11.2705C5.18062 11.3264 5.19937 11.3961 5.21203 11.4167C5.21015 11.4142 5.24765 11.426 5.3475 11.4265C5.55703 11.4265 5.63671 11.3445 5.79609 11.1822L6.57421 10.3905C6.66703 10.2953 6.81515 10.2983 6.90562 10.3954C6.99562 10.4925 6.99375 10.648 6.90093 10.7422L6.13593 11.5197C5.9475 11.7124 5.74781 11.9165 5.3475 11.9165C4.88812 11.9165 4.79531 11.7036 4.71421 11.4034C4.69781 11.3426 4.67906 11.2724 4.65093 11.1915L3.62062 7.64354L0.649215 6.67279C0.100778 6.49718 0.00702771 6.18717 0.000465213 6.01794C-0.00890979 5.78592 0.119059 5.4504 0.781871 5.17277L12.8264 0.312651C13.1531 0.156664 13.5037 0.19002 13.7517 0.406341C14.0391 0.656999 14.1328 1.09945 14.0091 1.6199L11.9602 11.7237C11.8739 12.1544 11.6948 12.4384 11.4272 12.5669C11.3264 12.6155 11.2186 12.6395 11.1033 12.6395Z" fill="#FAFBFF"/>
<path d="M7.46875 6.74035C7.46875 6.87549 7.36328 6.98607 7.23438 6.98607C7.10547 6.98607 7 6.87549 7 6.74035C7 6.6052 7.10547 6.49463 7.23438 6.49463C7.36328 6.49463 7.46875 6.6052 7.46875 6.74035Z" fill="#FAFBFF"/>
</svg>
